<svg width="14" height="12" viewBox="0 0 14 12" fill="none" xmlns="http://www.w3.org/2000/svg">
<path fill-rule="evenodd" clip-rule="evenodd" d="M10.0169 3.16688e-05L3.97083 0C1.85781 0 0.333374 1.70767 0.333374 3.90598V8.09402C0.333374 10.2923 1.85781 12 3.97083 12H10.0113C11.0262 11.9886 11.9868 11.5614 12.6751 10.8177C13.3633 10.074 13.7191 9.07886 13.6596 8.06396L13.6604 3.90598C13.7191 2.92114 13.3633 1.92597 12.6751 1.1823C11.9868 0.438624 11.0262 0.0113672 10.0169 3.16688e-05ZM3.97082 1.01897L10.0056 1.01894C10.7382 1.02717 11.4355 1.3373 11.9351 1.8771C12.4347 2.41691 12.6929 3.13927 12.6497 3.87594L12.6488 8.09404C12.6929 8.86077 12.4347 9.58313 11.9351 10.1229C11.4355 10.6627 10.7382 10.9729 10.0056 10.9811L3.97082 10.9811C2.4419 10.9811 1.34499 9.75232 1.34499 8.09404V3.906C1.34499 2.24772 2.4419 1.01897 3.97082 1.01897ZM11.0161 3.75895C10.8415 3.53928 10.5232 3.50374 10.3051 3.67957L7.57223 5.88287L7.4939 5.93792C7.17168 6.13974 6.74856 6.1211 6.43992 5.87879L3.68708 3.67825L3.62513 3.63577C3.41161 3.51156 3.13432 3.56025 2.97645 3.76061C2.80279 3.98101 2.8394 4.30148 3.05822 4.4764L5.81453 6.67969L5.92207 6.7584C6.61543 7.23063 7.53427 7.20452 8.19927 6.68245L10.9373 4.47507L10.9922 4.42371C11.16 4.24178 11.1748 3.95865 11.0161 3.75895Z" fill="#2B2B2B"/>
</svg>
