<svg width="7" height="8" viewBox="0 0 7 8" fill="none" xmlns="http://www.w3.org/2000/svg">
<path d="M5.57548 0.246399C5.90112 -0.0792442 6.42909 -0.0792442 6.75474 0.246399C7.05078 0.542439 7.07769 1.00569 6.83548 1.33214L6.75474 1.42566L1.42691 6.75349C1.10127 7.07913 0.573294 7.07913 0.247651 6.75349C-0.048389 6.45745 -0.0753017 5.99419 0.166913 5.66775L0.247651 5.57423L5.57548 0.246399Z" fill="#FF4A4A"/>
<path d="M0.244294 0.244171C0.540365 -0.0518375 1.00362 -0.078702 1.33004 0.163546L1.42355 0.244294L6.75583 5.57768C7.08144 5.90336 7.08138 6.43133 6.75571 6.75694C6.45964 7.05295 5.99638 7.07981 5.66996 6.83757L5.57645 6.75682L0.244171 1.42343C-0.0814384 1.09775 -0.0813834 0.569781 0.244294 0.244171Z" fill="#FF4A4A"/>
</svg>
