<svg width="40" height="40" viewBox="0 0 40 40" fill="none" xmlns="http://www.w3.org/2000/svg">
<g clip-path="url(#clip0)">
<path d="M35.1727 13.8331H35.1117C34.2665 13.8361 33.4542 14.1612 32.8402 14.7417C32.361 13.3415 31.0898 12.3385 29.5965 12.3385C28.6715 12.3505 27.7925 12.743 27.1668 13.4239C26.6014 12.2309 25.4338 11.4309 24.088 11.4309H24.023C23.2485 11.4309 22.4944 11.6615 21.9797 12.12V3.63682C21.9797 1.63141 20.4247 0 18.5268 0C16.631 0 15.082 1.63007 15.0807 3.63414L15.0659 20.4114L14.0482 19.1741C13.2291 18.1543 12.023 17.5209 10.7187 17.425C9.44047 17.3376 8.18306 17.7826 7.24436 18.6546L6.4243 19.3349C6.1753 19.5414 6.10425 19.8936 6.25339 20.1801L14.2285 35.4915C15.6792 38.2788 18.439 40 21.4307 40H30.3757C34.9116 40 38.6058 36.0793 38.6105 31.2471C38.6125 29.0882 38.6148 27.4823 38.6162 26.1743C38.6209 22.6524 38.6225 21.3357 38.6135 17.4589C38.6088 15.4588 37.0655 13.8331 35.1727 13.8331ZM37.2435 26.1776C37.2421 27.4856 37.2398 29.0869 37.2378 31.2458C37.2338 35.3216 34.1556 38.6273 30.3757 38.6273H21.4307C18.9524 38.6273 16.6592 37.1893 15.4457 34.8581L7.72628 20.033L8.13313 19.6986C8.14184 19.6912 8.15089 19.6848 8.15927 19.6768C8.82182 19.0534 9.71393 18.7334 10.6218 18.7941C11.5491 18.8651 12.4057 19.3185 12.9858 20.0458L15.2174 22.7626C15.4014 22.9865 15.706 23.0706 15.9788 22.9731C16.2516 22.8756 16.4339 22.6172 16.4343 22.3273L16.4474 3.63548C16.448 2.38813 17.3874 1.37302 18.5275 1.37302C19.6673 1.37302 20.607 2.38847 20.607 3.63682V14.9086C20.607 14.9474 20.6053 14.9863 20.6053 15.0255C20.6053 15.0426 20.607 15.0587 20.607 15.0751V19.8953C20.607 20.2743 20.9143 20.5816 21.2933 20.5816C21.6724 20.5816 21.9797 20.2743 21.9797 19.8953V14.9317C21.9797 13.7272 22.9117 12.8036 24.023 12.8036H24.088C25.2281 12.8036 26.1835 13.7778 26.1835 15.0265V19.4355C26.1835 19.8145 26.4908 20.1218 26.8699 20.1218C27.2489 20.1218 27.5562 19.8145 27.5562 19.4355V15.9759C27.5562 14.7276 28.4718 13.7118 29.6186 13.7118C30.7591 13.7118 31.6743 14.7276 31.6743 15.9759V19.2398C31.6743 19.6188 31.9816 19.9261 32.3606 19.9261C32.7397 19.9261 33.047 19.6188 33.047 19.2398V17.4726C33.047 16.2239 33.9713 15.2058 35.1117 15.2058H35.1727C36.3101 15.2058 37.2381 16.2199 37.2408 17.4646C37.2498 21.339 37.2482 22.6574 37.2435 26.1776Z" fill="#2B2B2B"/>
<path d="M24.3818 6.79802H33.2771L31.6822 8.3929C31.5046 8.56549 31.4336 8.82019 31.4966 9.05947C31.5596 9.29909 31.7466 9.48609 31.9862 9.5491C32.2255 9.61177 32.4802 9.54072 32.6528 9.3631L35.4092 6.607C35.6773 6.3389 35.6773 5.90423 35.4092 5.63646L32.6528 2.88036C32.3843 2.61494 31.952 2.61628 31.6853 2.88304C31.4182 3.15014 31.4168 3.58246 31.6822 3.8509L33.2567 5.42533H24.3818C24.0027 5.42533 23.6954 5.73265 23.6954 6.11168C23.6954 6.49071 24.0027 6.79802 24.3818 6.79802Z" fill="#2B2B2B"/>
<path d="M3.72611 6.79802H12.5423C12.9214 6.79802 13.2287 6.49071 13.2287 6.11168C13.2287 5.73265 12.9214 5.42533 12.5423 5.42533H3.74655L5.32099 3.8509C5.58641 3.58246 5.58507 3.15014 5.31797 2.88304C5.05121 2.61628 4.61889 2.61494 4.35045 2.88036L1.59401 5.63646C1.32625 5.90457 1.32625 6.33923 1.59401 6.607L4.35045 9.3631C4.52338 9.53837 4.77707 9.60741 5.01501 9.54407C5.25295 9.48107 5.43862 9.29507 5.50196 9.05713C5.5653 8.81919 5.49626 8.56583 5.32099 8.39257L3.72611 6.79802Z" fill="#2B2B2B"/>
</g>
<defs>
<clipPath id="clip0">
<rect width="40" height="40" fill="white"/>
</clipPath>
</defs>
</svg>
