<svg width="65" height="43" viewBox="0 0 65 43" fill="none" xmlns="http://www.w3.org/2000/svg">
<path d="M50.5454 0.628113C42.2465 0.628113 35.6937 7.35676 35.6937 15.6557C35.6937 23.9547 42.5096 30.6833 50.8085 30.6833C50.8916 30.6833 51.0168 30.6721 51.0998 30.6707C47.8185 33.2836 43.6972 34.8581 39.1861 34.8581C37.1106 34.8581 35.4404 36.541 35.4404 38.615C35.4404 40.6891 36.7757 42.3719 38.8512 42.3719C53.5819 42.3705 65.2213 30.3864 65.2213 15.6557C65.2213 15.6529 65.2213 15.6501 65.2213 15.6459C65.2213 7.35114 58.8416 0.628113 50.5454 0.628113Z" fill="#854AFF"/>
<path d="M15.1261 0.628113C6.82715 0.628113 0.263124 7.35676 0.263124 15.6557C0.263124 23.9547 7.07338 30.6833 15.3737 30.6833C15.4568 30.6833 15.5792 30.6721 15.6622 30.6707C12.3809 33.2836 8.25815 34.8581 3.74705 34.8581C1.67161 34.8581 0 36.541 0 38.615C0 40.6891 1.35642 42.3719 3.43186 42.3719C18.1626 42.3705 29.823 30.3864 29.823 15.6557C29.823 15.6529 29.823 15.6501 29.823 15.6459C29.823 7.35114 23.4222 0.628113 15.1261 0.628113Z" fill="#854AFF"/>
</svg>
