<svg width="66" height="42" viewBox="0 0 66 42" fill="none" xmlns="http://www.w3.org/2000/svg">
<path d="M50.6478 0.357422C42.332 0.357422 35.766 7.01213 35.766 15.2199C35.766 23.4276 42.5957 30.0823 50.9114 30.0823C50.9946 30.0823 51.1201 30.0712 51.2033 30.0698C47.9153 32.6541 43.7857 34.2113 39.2654 34.2113C37.1858 34.2113 35.5122 35.8757 35.5122 37.9269C35.5122 39.9781 36.8502 41.6425 38.9299 41.6425C53.6904 41.6411 65.3533 29.7887 65.3533 15.2199C65.3533 15.2171 65.3533 15.2143 65.3533 15.2101C65.3533 7.00657 58.9607 0.357422 50.6478 0.357422Z" fill="white"/>
<path d="M15.1567 0.357422C6.84097 0.357422 0.263656 7.01213 0.263656 15.2199C0.263656 23.4276 7.0877 30.0823 15.4049 30.0823C15.488 30.0823 15.6107 30.0712 15.6939 30.0698C12.4059 32.654 8.27486 34.2113 3.75464 34.2113C1.67499 34.2113 0 35.8756 0 37.9269C0 39.9781 1.35917 41.6425 3.43881 41.6425C18.1993 41.6411 29.8834 29.7887 29.8834 15.2199C29.8834 15.2171 29.8834 15.2143 29.8834 15.2101C29.8834 7.00656 23.4696 0.357422 15.1567 0.357422Z" fill="white"/>
</svg>
