<svg width="36" height="36" viewBox="0 0 36 36" fill="none" xmlns="http://www.w3.org/2000/svg">
<path fill-rule="evenodd" clip-rule="evenodd" d="M24.7879 4.50007L11.1843 4.5C6.42997 4.5 3 8.34227 3 13.2885V22.7115C3 27.6577 6.42997 31.5 11.1843 31.5H24.7753C27.0589 31.4744 29.2203 30.5131 30.7689 28.8398C32.3174 27.1666 33.1179 24.9274 32.9839 22.6439L32.9859 13.2885C33.1179 11.0726 32.3174 8.83343 30.7689 7.16017C29.2203 5.4869 27.0589 4.52558 24.7879 4.50007ZM11.1842 6.79281L24.7625 6.79274C26.4109 6.81126 27.9798 7.50905 29.1039 8.72361C30.2279 9.93817 30.809 11.5635 30.7117 13.221L30.7097 22.7117C30.809 24.4369 30.2279 26.0622 29.1039 27.2767C27.9798 28.4913 26.4109 29.1891 24.7625 29.2076L11.1842 29.2075C7.74414 29.2075 5.27612 26.4428 5.27612 22.7117V13.2886C5.27612 9.5575 7.74414 6.79281 11.1842 6.79281ZM27.0361 12.9577C26.6433 12.4634 25.9271 12.3835 25.4364 12.7791L19.2874 17.7365L19.1112 17.8604C18.3862 18.3145 17.4342 18.2725 16.7397 17.7273L10.5459 12.7761L10.4064 12.6805C9.92604 12.4011 9.30212 12.5106 8.94692 12.9614C8.55619 13.4573 8.63856 14.1784 9.1309 14.5719L15.3326 19.5294L15.5746 19.7065C17.1346 20.769 19.202 20.7102 20.6983 19.5356L26.8587 14.569L26.9823 14.4534C27.36 14.0441 27.3931 13.407 27.0361 12.9577Z" fill="white"/>
</svg>
