<svg width="193" height="50" viewBox="0 0 193 50" fill="none" xmlns="http://www.w3.org/2000/svg">
<g clip-path="url(#clip0)">
<path d="M37.8578 45.3142C37.5873 44.8479 36.99 44.6892 36.5232 44.9597L36.4856 44.9813C36.0192 45.2519 35.8605 45.8495 36.131 46.316C36.3121 46.6282 36.6398 46.8026 36.9765 46.8026C37.1427 46.8026 37.3114 46.7599 37.4656 46.6705L37.5032 46.6488C37.9696 46.3782 38.1283 45.7807 37.8578 45.3142Z" fill="#854AFF"/>
<path d="M46.6501 12.5087C43.312 6.72693 37.9223 2.59128 31.4737 0.863354C25.0252 -0.864575 18.2897 0.0222413 12.5079 3.36023C6.72631 6.69822 2.59056 12.0881 0.862731 18.5366C-0.865101 24.9851 0.0216179 31.7208 3.35961 37.5024C6.35384 42.6886 11.1128 46.6301 16.7599 48.6007C19.4368 49.5346 22.2312 50.0007 25.0213 50.0007C28.055 50.0007 31.0832 49.4494 33.9456 48.3493C34.4491 48.1558 34.7002 47.5909 34.5067 47.0875C34.3131 46.584 33.7481 46.3326 33.2449 46.5264C25.6257 49.4548 17.3775 48.1243 11.2151 43.4987L12.09 38.9318L12.5116 38.7949C14.1046 38.2773 14.9796 36.5601 14.4622 34.967L14.1529 34.0149C14.0813 33.7946 14.0817 33.5617 14.1538 33.3416C14.4252 32.5142 14.3283 31.6091 13.8877 30.8579C13.4472 30.1068 12.7045 29.5801 11.8499 29.4131L9.64584 28.9824L5.3931 25.749C5.13832 25.5552 4.80482 25.4987 4.50033 25.5975L2.01049 26.4063C1.95765 25.5158 1.95687 24.6256 2.00707 23.74C2.10531 23.8315 2.16927 23.8937 2.20863 23.9345C2.25736 24.0157 2.31771 24.0901 2.38841 24.1546C2.59174 24.3397 2.77591 24.4237 3.16263 24.4237C3.518 24.4236 4.04408 24.3528 4.91273 24.2245C5.73656 24.1027 6.55609 23.9655 6.5642 23.9641C6.89261 23.9092 7.17025 23.6904 7.30092 23.3843C7.43158 23.078 7.39711 22.7263 7.20951 22.4511L6.01215 20.6949L7.72718 19.4685C7.84144 19.3868 7.93675 19.2814 8.00658 19.1595L10.6651 14.5184L11.7367 13.3702C12.8317 12.1966 13.1442 10.4795 12.5327 8.99548C12.1719 8.12019 11.5418 7.39148 10.7537 6.90037C11.6073 6.22937 12.5173 5.60984 13.4845 5.05154C17.0331 3.00271 20.9058 2.00984 24.7377 1.97185L22.994 4.15925L16.5277 6.42615C16.2651 6.51814 16.0541 6.71794 15.9481 6.97517L14.1422 11.3529C14.014 11.6639 14.0547 12.0188 14.2501 12.2926L16.8876 15.9872C16.5099 16.3318 16.1422 16.8338 15.7031 17.457C15.5105 17.7303 15.3286 17.9885 15.203 18.1332C15.0937 18.2592 14.9843 18.3822 14.8759 18.5041C14.3086 19.1423 13.7221 19.8023 13.3054 20.684C12.3892 22.6233 12.5743 24.8774 13.7883 26.5667C14.9622 28.2 16.8976 29.0302 18.9632 28.7873C19.2997 28.7478 19.6135 28.6702 19.9171 28.595C20.7543 28.3879 21.0196 28.3672 21.2881 28.6185C21.4188 28.7409 21.4308 28.764 21.4282 29.179C21.4263 29.443 21.4243 29.7716 21.5153 30.1466C21.6611 30.7467 22.0379 31.1615 22.3407 31.4947C22.4911 31.6602 22.6468 31.8315 22.6948 31.9465C22.9994 32.6763 22.8667 33.0805 22.5761 33.9663C22.5512 34.0421 22.5258 34.1194 22.5003 34.1987C22.0588 35.5654 22.6743 36.9211 23.2172 38.117C23.3936 38.5053 23.5601 38.8719 23.6692 39.196C24.5472 41.8013 25.2054 42.398 25.7336 42.6382C26.0103 42.764 26.2966 42.8192 26.5859 42.8191C27.9936 42.819 29.4625 41.512 30.1373 40.6834C30.5612 40.1631 30.6656 39.6421 30.7417 39.2615C30.7797 39.0722 30.8096 38.9228 30.8666 38.8252C30.9539 38.6758 31.0568 38.5599 31.187 38.4132C31.4488 38.1184 31.7746 37.7516 31.9857 37.0867C32.146 36.5816 32.2625 36.4578 32.6484 36.0468C32.7156 35.9755 32.7871 35.8991 32.864 35.8155C34.1647 34.4002 33.8297 33.319 33.4749 32.1743C33.1764 31.2111 33.6986 30.5951 34.9611 29.4194C35.5083 28.9097 36.0742 28.3828 36.5116 27.7496C36.703 27.4724 37.2853 26.6294 36.9249 25.7937C36.5717 24.9744 35.674 24.8367 34.9527 24.7261C34.6678 24.6824 34.2373 24.6164 34.1003 24.5268C33.4961 24.1318 33.1265 23.3074 32.769 22.51C32.6978 22.3513 32.6276 22.1947 32.5564 22.0426C32.4294 21.7714 32.3026 21.4431 32.1683 21.0957C31.813 20.1761 31.4104 19.1339 30.7249 18.4073C30.1088 17.7545 28.9474 17.44 27.9227 17.1625C27.5781 17.0692 27.2528 16.9811 27.0382 16.9019C26.8584 16.8355 26.6633 16.8235 26.4772 16.8673C25.9785 16.9842 25.6673 17.113 25.4363 17.2981C25.3752 17.347 25.1945 17.5077 25.0886 17.7659C24.7311 17.5943 24.2395 17.2667 23.9369 17.065C23.9307 17.0608 23.9244 17.0566 23.9181 17.0524C24.0201 16.6444 23.9278 16.317 23.8311 16.1125C23.2856 14.9586 21.4747 15.0489 21.1175 15.0793C20.9146 15.0963 20.6578 15.1053 20.3863 15.1149C19.9597 15.1301 19.4882 15.147 19.0217 15.1994L19.0457 15.1324C19.3998 14.1458 20.342 13.4829 21.3903 13.4829H21.9454C22.4846 13.4829 22.9219 13.0456 22.9219 12.5064C22.9219 11.9673 22.4846 11.53 21.9454 11.53H21.3903C19.834 11.53 18.4089 12.349 17.6102 13.6382L16.1537 11.5978L17.5867 8.12429L23.9053 5.90906C24.0786 5.84831 24.2313 5.73992 24.3458 5.59626L27.1547 2.07292C34.3319 2.75564 41.0877 6.77966 44.959 13.4849C45.9902 15.271 46.753 17.1512 47.2601 19.0744L46.8461 19.4435C46.3058 19.9257 45.9892 20.6172 45.9771 21.3409C45.977 21.3488 45.9768 21.3566 45.9765 21.3644L45.3021 19.5097C45.2016 19.233 45.0536 18.9792 44.8623 18.7554L43.6593 17.3469C43.1929 16.8009 42.5138 16.488 41.7959 16.488H40.3234C39.8006 16.488 39.3229 16.7743 39.0763 17.2349C38.8297 17.6957 38.8567 18.2521 39.1466 18.6869L39.2956 18.9106C38.3441 19.7289 37.2435 20.3837 36.0716 20.8253L34.0531 16.9588V16.0962C34.0531 15.8294 33.9439 15.574 33.7508 15.3899L31.9331 13.6547C31.8328 13.559 31.7133 13.4857 31.5826 13.4397L29.9463 12.8647C29.4372 12.6856 28.88 12.9535 28.7013 13.4622C28.5225 13.9711 28.79 14.5284 29.2988 14.7072L30.7367 15.2126L32.1001 16.514V17.1984C32.1001 17.3557 32.1382 17.5108 32.2111 17.6504L34.7381 22.4909C34.9654 22.9264 35.4812 23.1255 35.9415 22.9551L36.6774 22.6839C38.3869 22.0534 39.9713 21.0392 41.2596 19.7511C41.5887 19.4219 41.6399 18.9064 41.3816 18.519L41.3296 18.441H41.7959C41.9417 18.441 42.0797 18.5046 42.1745 18.6155L43.3775 20.024C43.4162 20.0694 43.4462 20.1208 43.4667 20.1771L44.7944 23.8278C44.9084 24.1415 45.1748 24.3751 45.5004 24.4473C45.5707 24.4629 45.6415 24.4705 45.712 24.4705C45.9681 24.4705 46.2174 24.3696 46.4024 24.1844L47.0343 23.5525C47.4345 23.1522 47.71 22.6458 47.8416 22.0843C48.819 29.9169 45.7478 38.0192 39.2562 43.1143C38.8319 43.4472 38.7579 44.061 39.091 44.4853C39.4239 44.9096 40.0375 44.9837 40.462 44.6506C45.1487 40.9721 48.3684 35.7109 49.5281 29.836C50.6986 23.9045 49.6766 17.7507 46.6501 12.5087ZM4.61771 27.6129L8.64437 30.6745C8.76341 30.765 8.9015 30.8269 9.04818 30.8555L11.4751 31.3298C11.7849 31.3903 12.0433 31.5735 12.203 31.8458C12.3626 32.1179 12.3962 32.4329 12.298 32.7328C12.0958 33.3493 12.0949 34.0013 12.2953 34.6182L12.6047 35.5702C12.7896 36.1391 12.4769 36.7525 11.908 36.9374L10.9376 37.2527C10.5991 37.3627 10.3473 37.6482 10.2804 37.9976L9.49935 42.0747C7.78226 40.5031 6.27465 38.6457 5.05091 36.526C3.55795 33.9404 2.62513 31.1825 2.214 28.3938L4.61771 27.6129ZM10.3088 12.0378L9.16009 13.2685C9.10882 13.3235 9.064 13.3843 9.0266 13.4495L6.418 18.0038L4.09955 19.6616C3.66771 19.9704 3.56166 20.5674 3.86068 21.006L4.72777 22.2779C4.22797 22.3523 3.77943 22.4136 3.48119 22.4462C3.42386 22.3912 3.3639 22.3354 3.30189 22.2778C3.06976 22.0622 2.7472 21.7742 2.26634 21.3534C3.05941 16.4449 5.42465 11.8207 9.14457 8.29089C9.85687 8.51521 10.4414 9.04656 10.727 9.73962C11.0483 10.5191 10.884 11.4213 10.3088 12.0378ZM18.2707 17.374C18.7063 17.1289 19.7172 17.093 20.4553 17.0669C20.7511 17.0564 21.0306 17.0465 21.2802 17.0256C21.412 17.0145 21.5582 17.0166 21.6962 17.0273C21.6346 17.1855 21.6146 17.3592 21.6413 17.5314C21.6883 17.8344 21.8751 18.0976 22.1454 18.2423C22.3286 18.3403 22.5836 18.5103 22.8536 18.6903C23.6167 19.1991 24.4819 19.7758 25.2946 19.8275C26.0336 19.8755 26.4449 19.4543 26.621 19.2749C26.6351 19.2606 26.6484 19.2464 26.6624 19.2334C26.7617 19.1525 26.8546 19.0441 26.9238 18.9134C27.0799 18.958 27.244 19.0024 27.4121 19.048C27.9904 19.2046 29.0666 19.496 29.3044 19.7479C29.7268 20.1957 30.056 21.0479 30.3465 21.7998C30.4933 22.1798 30.632 22.5384 30.7875 22.8709C30.8543 23.0135 30.9201 23.1605 30.9869 23.3093C31.4374 24.3144 31.9482 25.4537 33.0317 26.1619C33.523 26.4831 34.1252 26.5754 34.6567 26.6569C34.7209 26.6668 34.7946 26.6781 34.8694 26.6904C34.5539 27.1304 34.1048 27.5486 33.6303 27.9905C32.4214 29.1163 30.9169 30.5175 31.6098 32.7527C31.9369 33.8082 31.9521 33.9222 31.4262 34.4943C31.3545 34.5723 31.2877 34.6434 31.2251 34.71C30.7747 35.1895 30.419 35.5682 30.1245 36.496C30.0389 36.7654 29.9281 36.8902 29.7268 37.1168C29.5659 37.298 29.3654 37.5238 29.1805 37.8402C28.959 38.2193 28.8858 38.5843 28.8271 38.8776C28.7692 39.1662 28.7364 39.311 28.6231 39.4501C28.3652 39.7667 27.8841 40.2264 27.3903 40.5402C26.9313 40.8316 26.6633 40.8715 26.572 40.866C26.4678 40.7543 26.0904 40.2651 25.5201 38.5724C25.3794 38.1549 25.1843 37.7252 24.9956 37.3096C24.5797 36.3936 24.1497 35.4464 24.3589 34.799C24.3836 34.7226 24.408 34.648 24.4321 34.5751C24.7662 33.5565 25.0817 32.5947 24.4973 31.1943C24.3194 30.7678 24.0361 30.4562 23.7864 30.1812C23.6247 30.0034 23.4416 29.8018 23.4134 29.6858C23.379 29.5443 23.3801 29.3809 23.3814 29.1918C23.3847 28.6815 23.3898 27.9105 22.6233 27.1927C21.5426 26.1812 20.2825 26.4928 19.4485 26.6991C19.1923 26.7624 18.9503 26.8223 18.7359 26.8475C17.364 27.0083 16.1392 26.4907 15.3745 25.4266C14.5746 24.3136 14.4585 22.8159 15.0716 21.518C15.3684 20.89 15.8167 20.3854 16.3359 19.8014C16.4493 19.6738 16.5637 19.5451 16.6782 19.4133C16.8686 19.1937 17.0782 18.8965 17.2997 18.5817C17.5643 18.2062 18.0569 17.507 18.2707 17.374Z" fill="#854AFF"/>
<path d="M40.0412 33.6209L39.5714 31.85C39.4687 31.4633 39.1406 31.1783 38.7435 31.1309C38.3458 31.0844 37.9602 31.2832 37.7692 31.6349C37.6622 31.8321 37.5658 32.0411 37.4727 32.2432C37.3159 32.5831 37.1538 32.9347 36.9852 33.1287C36.8904 33.2377 36.6471 33.3552 36.4119 33.4687C35.8497 33.7399 35.0797 34.1115 34.7856 35.0492C34.6029 35.6309 34.6711 36.091 34.7209 36.427C34.764 36.7183 34.7739 36.8192 34.6959 37.0025L34.6861 37.0252C34.3753 37.7546 33.797 39.1125 34.6079 40.2669C35.1865 41.0907 35.7949 41.3026 36.2677 41.3026C36.36 41.3028 36.4473 41.2947 36.528 41.2816C37.5241 41.1188 38.2729 40.0826 38.8849 38.0205L40.0335 34.1493C40.0846 33.9772 40.0873 33.7943 40.0412 33.6209ZM37.0127 37.465C36.7008 38.5163 36.4248 39.0071 36.2655 39.2247C36.2472 39.2013 36.2272 39.1747 36.206 39.1444C36.0193 38.8785 36.2982 38.2238 36.4828 37.7905L36.4927 37.7677C36.7903 37.0691 36.7107 36.5325 36.6528 36.1407C36.6156 35.8899 36.6023 35.782 36.6489 35.6339C36.6872 35.5121 36.916 35.394 37.2607 35.2275C37.4136 35.1537 37.5818 35.0726 37.7517 34.9743L37.0127 37.465Z" fill="#854AFF"/>
<path d="M26.3701 11.6074L26.3042 11.5844C25.7957 11.4062 25.2381 11.6737 25.0596 12.1826C24.8811 12.6916 25.1489 13.2487 25.6578 13.4272L25.7236 13.4503C25.8306 13.4878 25.9396 13.5056 26.0469 13.5056C26.45 13.5056 26.8274 13.2539 26.9684 12.852C27.1469 12.3431 26.879 11.7858 26.3701 11.6074Z" fill="#854AFF"/>
</g>
<path d="M71.4382 24H76.456C79.4986 24 80.8729 22.4851 80.8729 20.478C80.8729 18.4517 79.4538 17.3075 78.1562 17.2372V17.1094C79.358 16.8026 80.3615 15.9844 80.3615 14.348C80.3615 12.4112 79.0192 10.9091 76.2322 10.9091H71.4382V24ZM73.4134 22.3061V18.1129H76.3345C77.9197 18.1129 78.9105 19.1357 78.9105 20.3821C78.9105 21.4815 78.1626 22.3061 76.2642 22.3061H73.4134ZM73.4134 16.5724V12.5902H76.1108C77.6768 12.5902 78.4247 13.4148 78.4247 14.5014C78.4247 15.767 77.3892 16.5724 76.0597 16.5724H73.4134ZM95.487 17.4545C95.487 13.2678 92.9813 10.7301 89.5935 10.7301C86.193 10.7301 83.6937 13.2678 83.6937 17.4545C83.6937 21.6349 86.193 24.179 89.5935 24.179C92.9813 24.179 95.487 21.6413 95.487 17.4545ZM93.531 17.4545C93.531 20.6442 91.8435 22.3764 89.5935 22.3764C87.3371 22.3764 85.656 20.6442 85.656 17.4545C85.656 14.2649 87.3371 12.5327 89.5935 12.5327C91.8435 12.5327 93.531 14.2649 93.531 17.4545ZM106.616 24H109.026L103.592 16.7706L108.828 10.9091H106.418L101.47 16.4382H100.825V10.9091H98.8495V24H100.825V18.1321H102.218L106.616 24ZM111.755 24H113.731V19.3977H116.415C119.451 19.3977 120.954 17.5632 120.954 15.147C120.954 12.7372 119.464 10.9091 116.422 10.9091H111.755V24ZM113.731 17.723V12.603H116.211C118.167 12.603 118.966 13.6641 118.966 15.147C118.966 16.63 118.167 17.723 116.236 17.723H113.731ZM125.096 24.179H125.991C128.036 24.179 128.714 23.0348 129.289 21.7308L133.815 10.9091H131.744L128.688 18.4773L125.256 10.9091H123.159L127.761 20.7337L127.576 21.2003C127.295 21.8842 126.86 22.4403 125.882 22.4403H125.096V24.179ZM144.745 10.9091H136.583V24H138.558V12.6094H144.745V10.9091ZM153.535 24H155.51V18.2919H162.037V24H164.018V10.9091H162.037V16.598H155.51V10.9091H153.535V24ZM168.9 24L170.102 20.5355H175.216L176.411 24H178.508L173.797 10.9091H171.515L166.804 24H168.9ZM170.677 18.8736L172.608 13.2869H172.71L174.64 18.8736H170.677ZM191.556 15.1662C191.108 12.3665 188.916 10.7301 186.148 10.7301C182.76 10.7301 180.261 13.2678 180.261 17.4545C180.261 21.6413 182.747 24.179 186.148 24.179C189.024 24.179 191.127 22.3764 191.556 19.7876L189.561 19.7812C189.223 21.456 187.816 22.3764 186.161 22.3764C183.917 22.3764 182.223 20.657 182.223 17.4545C182.223 14.2777 183.911 12.5327 186.167 12.5327C187.835 12.5327 189.235 13.4723 189.561 15.1662H191.556Z" fill="#854AFF"/>
<path opacity="0.5" d="M70.615 42.25H71.5L72.67 39.745C72.78 39.505 72.895 39.335 73.015 39.235C73.145 39.125 73.29 39.055 73.45 39.025V38.965C73.29 38.915 73.15 38.84 73.03 38.74C72.92 38.64 72.81 38.48 72.7 38.26L71.605 36.07H70.72V35.32H71.44C71.89 35.32 72.23 35.555 72.46 36.025L73.765 38.635H75.265V35.32H76.12V38.635H77.62L78.925 36.025C79.155 35.555 79.495 35.32 79.945 35.32H80.665V36.07H79.78L78.685 38.26C78.575 38.48 78.46 38.64 78.34 38.74C78.23 38.84 78.095 38.915 77.935 38.965V39.025C78.095 39.055 78.235 39.125 78.355 39.235C78.485 39.335 78.605 39.505 78.715 39.745L79.885 42.25H80.77V43H79.93C79.73 43 79.55 42.95 79.39 42.85C79.24 42.74 79.1 42.545 78.97 42.265L77.62 39.37H76.12V43H75.265V39.37H73.765L72.415 42.265C72.285 42.545 72.14 42.74 71.98 42.85C71.83 42.95 71.655 43 71.455 43H70.615V42.25ZM87.6668 35.32H88.5368L84.9818 45.16C84.8618 45.48 84.7168 45.7 84.5468 45.82C84.3768 45.94 84.0968 46 83.7068 46H82.8368V45.25H84.1268L84.8618 43.225L82.0118 35.32H82.9118L85.2668 42.085H85.3268L87.6668 35.32ZM90.5546 35.32H91.4096V36.55H91.4546C91.6446 36.12 91.9346 35.78 92.3246 35.53C92.7146 35.27 93.2046 35.14 93.7946 35.14C94.7846 35.14 95.5596 35.49 96.1196 36.19C96.6796 36.89 96.9596 37.88 96.9596 39.16C96.9596 40.44 96.6796 41.43 96.1196 42.13C95.5596 42.83 94.7846 43.18 93.7946 43.18C93.2046 43.18 92.7196 43.055 92.3396 42.805C91.9596 42.545 91.6646 42.2 91.4546 41.77H91.4096V46H90.5546V35.32ZM93.5996 42.415C94.3696 42.415 94.9696 42.17 95.3996 41.68C95.8296 41.19 96.0446 40.53 96.0446 39.7V38.62C96.0446 37.79 95.8296 37.13 95.3996 36.64C94.9696 36.15 94.3696 35.905 93.5996 35.905C93.2996 35.905 93.0146 35.95 92.7446 36.04C92.4846 36.12 92.2546 36.235 92.0546 36.385C91.8546 36.535 91.6946 36.715 91.5746 36.925C91.4646 37.135 91.4096 37.365 91.4096 37.615V40.66C91.4096 40.93 91.4646 41.175 91.5746 41.395C91.6946 41.605 91.8546 41.79 92.0546 41.95C92.2546 42.1 92.4846 42.215 92.7446 42.295C93.0146 42.375 93.2996 42.415 93.5996 42.415ZM99.4679 35.32H100.323V38.635H104.583V35.32H105.438V43H104.583V39.385H100.323V43H99.4679V35.32ZM113.793 43C113.463 43 113.223 42.915 113.073 42.745C112.923 42.575 112.838 42.345 112.818 42.055V41.785H112.743C112.573 42.215 112.293 42.555 111.903 42.805C111.513 43.055 111.018 43.18 110.418 43.18C109.608 43.18 108.983 42.985 108.543 42.595C108.103 42.195 107.883 41.635 107.883 40.915C107.883 40.235 108.123 39.695 108.603 39.295C109.093 38.895 109.893 38.695 111.003 38.695H112.773V37.795C112.773 36.525 112.118 35.89 110.808 35.89C110.298 35.89 109.873 36 109.533 36.22C109.193 36.43 108.918 36.735 108.708 37.135L108.168 36.685C108.378 36.235 108.698 35.865 109.128 35.575C109.568 35.285 110.138 35.14 110.838 35.14C111.738 35.14 112.428 35.365 112.908 35.815C113.388 36.265 113.628 36.895 113.628 37.705V42.25H114.663V43H113.793ZM110.538 42.445C110.848 42.445 111.138 42.405 111.408 42.325C111.678 42.245 111.913 42.135 112.113 41.995C112.323 41.845 112.483 41.67 112.593 41.47C112.713 41.26 112.773 41.025 112.773 40.765V39.34H110.973C110.203 39.34 109.643 39.465 109.293 39.715C108.953 39.955 108.783 40.29 108.783 40.72V41.08C108.783 41.53 108.943 41.87 109.263 42.1C109.583 42.33 110.008 42.445 110.538 42.445ZM115.623 42.25H116.583C116.723 42.07 116.853 41.855 116.973 41.605C117.103 41.345 117.213 41.03 117.303 40.66C117.393 40.28 117.463 39.835 117.513 39.325C117.563 38.815 117.588 38.22 117.588 37.54V35.32H122.463V43H121.608V36.07H118.413V37.57C118.413 38.31 118.378 38.96 118.308 39.52C118.248 40.08 118.163 40.565 118.053 40.975C117.953 41.375 117.833 41.71 117.693 41.98C117.553 42.25 117.408 42.46 117.258 42.61C117.108 42.75 116.943 42.85 116.763 42.91C116.593 42.97 116.393 43 116.163 43H115.623V42.25ZM132.123 43.18C131.613 43.18 131.153 43.09 130.743 42.91C130.333 42.73 129.983 42.47 129.693 42.13C129.403 41.78 129.178 41.355 129.018 40.855C128.858 40.355 128.778 39.79 128.778 39.16C128.778 38.53 128.858 37.97 129.018 37.48C129.178 36.98 129.403 36.56 129.693 36.22C129.983 35.87 130.333 35.605 130.743 35.425C131.153 35.235 131.613 35.14 132.123 35.14C132.633 35.14 133.093 35.235 133.503 35.425C133.913 35.605 134.263 35.87 134.553 36.22C134.843 36.56 135.068 36.98 135.228 37.48C135.388 37.97 135.468 38.53 135.468 39.16C135.468 39.79 135.388 40.355 135.228 40.855C135.068 41.355 134.843 41.78 134.553 42.13C134.263 42.47 133.913 42.73 133.503 42.91C133.093 43.09 132.633 43.18 132.123 43.18ZM132.123 42.415C132.873 42.415 133.463 42.18 133.893 41.71C134.333 41.24 134.553 40.55 134.553 39.64V38.68C134.553 37.78 134.333 37.095 133.893 36.625C133.463 36.145 132.873 35.905 132.123 35.905C131.373 35.905 130.778 36.14 130.338 36.61C129.908 37.08 129.693 37.77 129.693 38.68V39.64C129.693 40.54 129.908 41.23 130.338 41.71C130.778 42.18 131.373 42.415 132.123 42.415ZM140.848 43.18C140.308 43.18 139.828 43.09 139.408 42.91C138.998 42.73 138.648 42.46 138.358 42.1C138.078 41.73 137.863 41.28 137.713 40.75C137.563 40.22 137.488 39.505 137.488 38.605C137.488 37.425 137.553 36.425 137.683 35.605C137.823 34.785 138.043 34.12 138.343 33.61C138.643 33.09 139.038 32.705 139.528 32.455C140.028 32.195 140.638 32.035 141.358 31.975L143.623 31.795V32.65L141.268 32.845C140.728 32.895 140.283 33.005 139.933 33.175C139.593 33.335 139.318 33.58 139.108 33.91C138.898 34.23 138.738 34.645 138.628 35.155C138.528 35.665 138.453 36.285 138.403 37.015H138.448C138.688 36.405 139.013 35.97 139.423 35.71C139.843 35.45 140.353 35.32 140.953 35.32C141.953 35.32 142.743 35.67 143.323 36.37C143.913 37.07 144.208 38.035 144.208 39.265C144.208 39.865 144.128 40.405 143.968 40.885C143.818 41.365 143.593 41.775 143.293 42.115C143.003 42.455 142.648 42.72 142.228 42.91C141.818 43.09 141.358 43.18 140.848 43.18ZM140.893 42.415C141.633 42.415 142.218 42.175 142.648 41.695C143.078 41.205 143.293 40.545 143.293 39.715V38.875C143.293 37.965 143.068 37.275 142.618 36.805C142.178 36.325 141.578 36.085 140.818 36.085C140.038 36.085 139.443 36.305 139.033 36.745C138.623 37.175 138.418 37.765 138.418 38.515V39.625C138.418 40.535 138.638 41.23 139.078 41.71C139.528 42.18 140.133 42.415 140.893 42.415ZM149.408 43.18C148.898 43.18 148.438 43.09 148.028 42.91C147.618 42.73 147.268 42.47 146.978 42.13C146.688 41.78 146.463 41.355 146.303 40.855C146.143 40.355 146.063 39.79 146.063 39.16C146.063 38.53 146.143 37.97 146.303 37.48C146.463 36.98 146.688 36.56 146.978 36.22C147.268 35.87 147.618 35.605 148.028 35.425C148.438 35.235 148.898 35.14 149.408 35.14C149.918 35.14 150.378 35.235 150.788 35.425C151.198 35.605 151.548 35.87 151.838 36.22C152.128 36.56 152.353 36.98 152.513 37.48C152.673 37.97 152.753 38.53 152.753 39.16C152.753 39.79 152.673 40.355 152.513 40.855C152.353 41.355 152.128 41.78 151.838 42.13C151.548 42.47 151.198 42.73 150.788 42.91C150.378 43.09 149.918 43.18 149.408 43.18ZM149.408 42.415C150.158 42.415 150.748 42.18 151.178 41.71C151.618 41.24 151.838 40.55 151.838 39.64V38.68C151.838 37.78 151.618 37.095 151.178 36.625C150.748 36.145 150.158 35.905 149.408 35.905C148.658 35.905 148.063 36.14 147.623 36.61C147.193 37.08 146.978 37.77 146.978 38.68V39.64C146.978 40.54 147.193 41.23 147.623 41.71C148.063 42.18 148.658 42.415 149.408 42.415ZM159.07 35.32H162.775C163.365 35.32 163.825 35.49 164.155 35.83C164.495 36.17 164.665 36.64 164.665 37.24C164.665 37.73 164.545 38.115 164.305 38.395C164.065 38.675 163.72 38.855 163.27 38.935V38.995C163.84 39.055 164.265 39.245 164.545 39.565C164.825 39.875 164.965 40.285 164.965 40.795C164.965 41.105 164.92 41.395 164.83 41.665C164.74 41.935 164.61 42.17 164.44 42.37C164.27 42.56 164.06 42.715 163.81 42.835C163.56 42.945 163.275 43 162.955 43H159.07V35.32ZM162.73 42.28C163.16 42.28 163.485 42.165 163.705 41.935C163.935 41.695 164.05 41.39 164.05 41.02V40.63C164.05 40.27 163.93 39.975 163.69 39.745C163.45 39.505 163.1 39.385 162.64 39.385H159.925V42.28H162.73ZM162.52 38.68C162.93 38.68 163.235 38.575 163.435 38.365C163.645 38.145 163.75 37.865 163.75 37.525V37.15C163.75 36.82 163.65 36.555 163.45 36.355C163.25 36.145 162.96 36.04 162.58 36.04H159.925V38.68H162.52ZM170.39 43.18C169.33 43.18 168.51 42.83 167.93 42.13C167.36 41.43 167.075 40.44 167.075 39.16C167.075 37.88 167.36 36.89 167.93 36.19C168.51 35.49 169.33 35.14 170.39 35.14C171.1 35.14 171.675 35.295 172.115 35.605C172.555 35.915 172.89 36.325 173.12 36.835L172.4 37.195C172.22 36.775 171.965 36.455 171.635 36.235C171.315 36.015 170.9 35.905 170.39 35.905C169.61 35.905 169.015 36.155 168.605 36.655C168.195 37.155 167.99 37.81 167.99 38.62V39.7C167.99 40.51 168.195 41.165 168.605 41.665C169.015 42.165 169.61 42.415 170.39 42.415C170.92 42.415 171.365 42.3 171.725 42.07C172.085 41.84 172.375 41.51 172.595 41.08L173.225 41.5C172.975 42.01 172.615 42.42 172.145 42.73C171.685 43.03 171.1 43.18 170.39 43.18ZM178.06 43.18C177.55 43.18 177.085 43.09 176.665 42.91C176.255 42.73 175.9 42.47 175.6 42.13C175.31 41.78 175.085 41.355 174.925 40.855C174.775 40.355 174.7 39.79 174.7 39.16C174.7 38.53 174.775 37.97 174.925 37.48C175.085 36.98 175.31 36.56 175.6 36.22C175.9 35.87 176.255 35.605 176.665 35.425C177.075 35.235 177.535 35.14 178.045 35.14C178.535 35.14 178.98 35.235 179.38 35.425C179.78 35.605 180.12 35.86 180.4 36.19C180.68 36.52 180.895 36.92 181.045 37.39C181.205 37.85 181.285 38.36 181.285 38.92V39.325H175.6V39.7C175.6 40.1 175.655 40.47 175.765 40.81C175.885 41.14 176.05 41.425 176.26 41.665C176.48 41.905 176.745 42.095 177.055 42.235C177.365 42.365 177.715 42.43 178.105 42.43C179.225 42.43 180 41.915 180.43 40.885L181.06 41.305C180.82 41.875 180.44 42.33 179.92 42.67C179.41 43.01 178.79 43.18 178.06 43.18ZM178.045 35.86C177.675 35.86 177.34 35.93 177.04 36.07C176.74 36.2 176.48 36.385 176.26 36.625C176.05 36.865 175.885 37.155 175.765 37.495C175.655 37.825 175.6 38.19 175.6 38.59V38.665H180.355V38.545C180.355 38.145 180.3 37.78 180.19 37.45C180.08 37.11 179.92 36.825 179.71 36.595C179.51 36.365 179.265 36.185 178.975 36.055C178.695 35.925 178.385 35.86 178.045 35.86ZM183.759 35.32H184.914L187.524 39.715H187.584L190.179 35.32H191.319V43H190.479V36.355H190.404L189.924 37.21L187.539 41.2L185.154 37.21L184.674 36.355H184.599V43H183.759V35.32Z" fill="#2B2B2B"/>
<defs>
<clipPath id="clip0">
<rect width="50" height="50" fill="white"/>
</clipPath>
</defs>
</svg>
