<svg width="16" height="16" viewBox="0 0 16 16" fill="none" xmlns="http://www.w3.org/2000/svg">
<path d="M14.9283 4.00342C13.8601 2.15326 12.1354 0.829854 10.0718 0.276917C8.00833 -0.276021 5.85295 0.00776052 4.00279 1.07592C2.15267 2.14407 0.82923 3.86882 0.276323 5.93235C-0.276583 7.99588 0.00716674 10.1513 1.07532 12.0014C2.03348 13.661 3.55635 14.9223 5.36342 15.5528C6.22001 15.8517 7.11423 16.0009 8.00708 16.0009C8.97786 16.0009 9.94689 15.8244 10.8629 15.4724C11.024 15.4105 11.1043 15.2297 11.0424 15.0686C10.9805 14.9075 10.7996 14.8271 10.6386 14.8891C8.20048 15.8262 5.56104 15.4004 3.58907 13.9202L3.86904 12.4588L4.00395 12.415C4.51373 12.2494 4.79373 11.6999 4.62817 11.1901L4.52917 10.8854C4.50626 10.8149 4.50639 10.7404 4.52948 10.6699C4.61632 10.4052 4.58529 10.1155 4.44432 9.87516C4.30336 9.63482 4.0657 9.46629 3.79223 9.41282L3.08692 9.27501L1.72604 8.24032C1.64451 8.17832 1.53779 8.16023 1.44035 8.19185L0.643604 8.45066C0.626698 8.1657 0.626448 7.88082 0.642511 7.59745C0.673948 7.62673 0.694417 7.64663 0.707011 7.6597C0.722605 7.68566 0.741917 7.70948 0.764542 7.7301C0.829605 7.78935 0.888542 7.81623 1.01229 7.81623C1.12601 7.8162 1.29435 7.79354 1.57232 7.75248C1.83595 7.71351 2.0982 7.6696 2.10079 7.66916C2.20589 7.65157 2.29473 7.58157 2.33654 7.4836C2.37836 7.3856 2.36732 7.27307 2.30729 7.18501L1.92414 6.62301L2.47295 6.23057C2.50951 6.20441 2.54001 6.1707 2.56236 6.1317L3.41307 4.64654L3.75598 4.2791C4.10639 3.90354 4.20639 3.35407 4.0107 2.8792C3.89526 2.5991 3.69364 2.36592 3.44145 2.20876C3.71457 1.99404 4.00579 1.79579 4.31529 1.61713C5.45086 0.96151 6.69011 0.643792 7.91633 0.631635L7.35833 1.3316L5.28911 2.05701C5.20507 2.08645 5.13757 2.15038 5.10364 2.2327L4.52576 3.63357C4.48473 3.7331 4.49776 3.84667 4.56029 3.93429L5.40429 5.11654C5.28342 5.22682 5.16576 5.38745 5.02523 5.58688C4.96361 5.67435 4.90542 5.75695 4.8652 5.80326C4.83023 5.84357 4.79523 5.88295 4.76054 5.92195C4.57901 6.12616 4.39132 6.33738 4.25798 6.61951C3.96479 7.2401 4.02401 7.96141 4.41251 8.50198C4.78817 9.02463 5.40748 9.29032 6.06848 9.21257C6.17617 9.19994 6.27657 9.1751 6.37373 9.15104C6.64164 9.08476 6.72651 9.07813 6.81245 9.15857C6.85426 9.19773 6.85811 9.20513 6.85726 9.33791C6.85667 9.42241 6.85601 9.52754 6.88514 9.64757C6.93179 9.8396 7.05239 9.97232 7.14926 10.0789C7.19742 10.1319 7.24723 10.1867 7.26258 10.2235C7.36004 10.4571 7.31761 10.5864 7.22461 10.8699C7.21664 10.8941 7.20851 10.9188 7.20036 10.9442C7.05907 11.3816 7.25601 11.8154 7.42976 12.1981C7.4862 12.3223 7.53948 12.4397 7.57439 12.5433C7.85536 13.3771 8.06598 13.568 8.23501 13.6449C8.32354 13.6851 8.41517 13.7028 8.50773 13.7028C8.9582 13.7027 9.42826 13.2845 9.6442 13.0193C9.77983 12.8528 9.81323 12.6861 9.83761 12.5643C9.84976 12.5038 9.85933 12.4559 9.87758 12.4247C9.90551 12.3769 9.93842 12.3398 9.98008 12.2929C10.0639 12.1985 10.1681 12.0812 10.2357 11.8684C10.287 11.7068 10.3243 11.6671 10.4477 11.5356C10.4692 11.5128 10.4921 11.4883 10.5167 11.4616C10.933 11.0087 10.8258 10.6627 10.7122 10.2964C10.6167 9.98819 10.7838 9.79107 11.1878 9.41485C11.3629 9.25176 11.544 9.08313 11.684 8.88051C11.7452 8.79182 11.9315 8.52204 11.8162 8.25463C11.7032 7.99244 11.4159 7.94838 11.1851 7.91301C11.094 7.89901 10.9562 7.87788 10.9124 7.84923C10.719 7.72282 10.6007 7.45901 10.4863 7.20385C10.4635 7.15307 10.4411 7.10295 10.4183 7.05429C10.3777 6.96748 10.3371 6.86245 10.2941 6.75126C10.1804 6.45701 10.0516 6.12348 9.83223 5.89098C9.63508 5.68207 9.26342 5.58145 8.93551 5.49263C8.82523 5.46279 8.72114 5.4346 8.65248 5.40926C8.59495 5.38801 8.53251 5.38417 8.47295 5.39817C8.31336 5.43557 8.21379 5.47679 8.13986 5.53604C8.12033 5.5517 8.06248 5.6031 8.02861 5.68573C7.9142 5.63082 7.75689 5.52598 7.66007 5.46145C7.65807 5.4601 7.65604 5.45876 7.65404 5.45742C7.68667 5.32685 7.65714 5.22207 7.6262 5.15663C7.45164 4.78738 6.87217 4.81629 6.75786 4.82601C6.69292 4.83145 6.61076 4.83435 6.52386 4.83742C6.38736 4.84226 6.23648 4.8477 6.0872 4.86445L6.09489 4.84301C6.2082 4.52729 6.5097 4.31517 6.84514 4.31517H7.02279C7.19532 4.31517 7.33526 4.17523 7.33526 4.0027C7.33526 3.83017 7.19532 3.69023 7.02279 3.69023H6.84514C6.34714 3.69023 5.89111 3.95232 5.63551 4.36485L5.16942 3.71195L5.62798 2.60042L7.64995 1.89154C7.70539 1.8721 7.75426 1.83742 7.79092 1.79145L8.68976 0.663979C10.9865 0.882448 13.1483 2.17013 14.3871 4.31582C14.7171 4.88735 14.9612 5.48904 15.1235 6.10445L14.991 6.22257C14.8181 6.37685 14.7168 6.59813 14.7129 6.82973C14.7129 6.83226 14.7128 6.83476 14.7127 6.83726L14.4969 6.24376C14.4648 6.1552 14.4174 6.07398 14.3562 6.00238L13.9712 5.55166C13.822 5.37695 13.6047 5.27679 13.375 5.27679H12.9037C12.7365 5.27679 12.5836 5.36842 12.5047 5.51582C12.4258 5.66326 12.4344 5.84132 12.5272 5.98045L12.5749 6.05204C12.2704 6.31388 11.9182 6.52341 11.5432 6.66473L10.8972 5.42745V5.15141C10.8972 5.06604 10.8623 4.98432 10.8005 4.92542L10.2189 4.37013C10.1868 4.33951 10.1485 4.31607 10.1067 4.30135L9.58308 4.11735C9.42017 4.06004 9.24186 4.14576 9.18467 4.30854C9.12745 4.47138 9.21304 4.64973 9.37586 4.70695L9.83598 4.86867L10.2723 5.28513V5.50413C10.2723 5.55448 10.2845 5.6041 10.3078 5.64876L11.1165 7.19773C11.1892 7.3371 11.3542 7.40079 11.5015 7.34629L11.737 7.25948C12.284 7.05773 12.7911 6.7332 13.2033 6.32101C13.3086 6.21566 13.325 6.0507 13.2424 5.92673L13.2257 5.90176H13.375C13.4216 5.90176 13.4658 5.9221 13.4961 5.9576L13.881 6.40832C13.8935 6.42285 13.903 6.43929 13.9096 6.45732L14.3345 7.62554C14.371 7.72591 14.4562 7.80066 14.5604 7.82379C14.5829 7.82876 14.6055 7.8312 14.6281 7.8312C14.71 7.8312 14.7898 7.79891 14.849 7.73966L15.0512 7.53745C15.1793 7.40935 15.2675 7.24729 15.3096 7.06763C15.6223 9.57404 14.6395 12.1668 12.5622 13.7972C12.4265 13.9038 12.4028 14.1002 12.5094 14.2359C12.6159 14.3717 12.8123 14.3954 12.9481 14.2888C14.4478 13.1117 15.4781 11.4281 15.8492 9.54816C16.2238 7.65007 15.8968 5.68085 14.9283 4.00342ZM1.47792 8.83676L2.76645 9.81647C2.80454 9.84544 2.84873 9.86526 2.89567 9.87441L3.67229 10.0262C3.77142 10.0455 3.85411 10.1042 3.9052 10.1913C3.95629 10.2784 3.96704 10.3792 3.93561 10.4751C3.87092 10.6724 3.87061 10.8811 3.93476 11.0785L4.03376 11.3831C4.09292 11.5652 3.99286 11.7614 3.81082 11.8206L3.50029 11.9215C3.39195 11.9567 3.31139 12.0481 3.28998 12.1599L3.04004 13.4645C2.49057 12.9616 2.00814 12.3673 1.61654 11.689C1.13879 10.8616 0.840292 9.97904 0.708729 9.08666L1.47792 8.83676ZM3.29907 3.85273L2.93148 4.24657C2.91507 4.26417 2.90073 4.2836 2.88876 4.30448L2.05401 5.76185L1.3121 6.29235C1.17392 6.39116 1.13998 6.5822 1.23567 6.72257L1.51314 7.12957C1.3532 7.15338 1.20967 7.17301 1.11423 7.18341C1.09589 7.16582 1.0767 7.14798 1.05685 7.12954C0.982573 7.06054 0.879355 6.96838 0.725479 6.83373C0.979261 5.26301 1.73614 3.78326 2.92651 2.65373C3.15445 2.72551 3.34151 2.89554 3.43289 3.11732C3.5357 3.36676 3.48314 3.65545 3.29907 3.85273ZM5.84689 5.56032C5.98626 5.48188 6.30976 5.47042 6.54595 5.46204C6.64061 5.4587 6.73004 5.45551 6.80992 5.44882C6.85207 5.44529 6.89889 5.44595 6.94304 5.44938C6.92332 5.50001 6.91692 5.55557 6.92548 5.6107C6.94051 5.70766 7.00029 5.79188 7.08679 5.83817C7.14542 5.86954 7.22701 5.92395 7.31339 5.98154C7.55761 6.14435 7.83445 6.32888 8.09451 6.34545C8.33101 6.36079 8.46261 6.22601 8.51898 6.1686C8.52348 6.16404 8.52773 6.15948 8.53223 6.15532C8.56398 6.12945 8.59373 6.09476 8.61586 6.05291C8.66583 6.0672 8.71833 6.08141 8.77214 6.09601C8.95717 6.1461 9.30158 6.23935 9.37767 6.31998C9.51283 6.46326 9.61817 6.73598 9.71114 6.97657C9.75811 7.09816 9.80248 7.21291 9.85226 7.31932C9.87364 7.36498 9.89467 7.41201 9.91604 7.45963C10.0602 7.78126 10.2237 8.14582 10.5704 8.37245C10.7276 8.47523 10.9203 8.50476 11.0904 8.53085C11.111 8.53401 11.1345 8.53763 11.1585 8.54157C11.0575 8.68238 10.9138 8.81619 10.762 8.9576C10.3751 9.31785 9.89367 9.76623 10.1154 10.4815C10.22 10.8193 10.2249 10.8558 10.0566 11.0388C10.0337 11.0638 10.0123 11.0865 9.99229 11.1079C9.84817 11.2613 9.73433 11.3825 9.64008 11.6793C9.6127 11.7656 9.57723 11.8055 9.51283 11.878C9.46133 11.936 9.39717 12.0083 9.33801 12.1095C9.26714 12.2308 9.2437 12.3476 9.22492 12.4415C9.20639 12.5338 9.19589 12.5802 9.15964 12.6247C9.07711 12.726 8.92317 12.8731 8.76514 12.9735C8.61826 13.0668 8.53251 13.0795 8.50329 13.0778C8.46995 13.042 8.34917 12.8855 8.16667 12.3438C8.12167 12.2102 8.05923 12.0727 7.99886 11.9397C7.86576 11.6466 7.72817 11.3435 7.79511 11.1363C7.80301 11.1119 7.81082 11.088 7.81851 11.0647C7.92545 10.7387 8.02639 10.4309 7.83939 9.98282C7.78245 9.84635 7.69179 9.74663 7.61189 9.65863C7.56017 9.60173 7.50157 9.53723 7.49254 9.5001C7.48154 9.45482 7.48189 9.40254 7.48229 9.34201C7.48336 9.17873 7.48498 8.93201 7.2397 8.70232C6.89389 8.37863 6.49064 8.47835 6.22376 8.54435C6.14179 8.5646 6.06436 8.58379 5.99573 8.59185C5.55673 8.64329 5.16479 8.47766 4.92011 8.13716C4.66414 7.78101 4.62698 7.30173 4.82317 6.88641C4.91814 6.68545 5.06161 6.52398 5.22773 6.3371C5.26401 6.29626 5.30064 6.25507 5.33726 6.21288C5.3982 6.14263 5.46526 6.04751 5.53617 5.94679C5.62082 5.82663 5.77845 5.60288 5.84689 5.56032Z" fill="#854AFF"/>
</svg>
