<?xml version="1.0" standalone="no"?>
<!DOCTYPE svg PUBLIC "-//W3C//DTD SVG 20010904//EN"
 "http://www.w3.org/TR/2001/REC-SVG-20010904/DTD/svg10.dtd">
<svg version="1.0" xmlns="http://www.w3.org/2000/svg"
 width="700.000000pt" height="700.000000pt" viewBox="0 0 700.000000 700.000000"
 preserveAspectRatio="xMidYMid meet">
<metadata>
Created by potrace 1.14, written by Peter Selinger 2001-2017
</metadata>
<g transform="translate(0.000000,700.000000) scale(0.100000,-0.100000)"
fill="#000000" stroke="none">
<path d="M3278 6995 c-2 -1 -39 -5 -83 -9 -119 -9 -168 -16 -355 -50 -166 -30
-361 -85 -536 -150 -176 -66 -198 -75 -334 -142 -817 -402 -1424 -1067 -1742
-1907 -83 -222 -157 -506 -188 -722 -6 -44 -13 -93 -15 -110 -27 -188 -27
-623 1 -822 11 -85 13 -101 19 -148 4 -27 10 -66 15 -85 5 -19 12 -48 14 -65
9 -49 13 -66 36 -155 24 -95 113 -369 134 -415 8 -16 26 -59 41 -95 195 -468
539 -934 945 -1282 514 -440 1149 -721 1835 -812 211 -28 662 -28 865 0 19 3
51 7 70 10 92 12 216 36 311 59 35 9 73 18 84 20 87 19 348 108 382 130 13 9
33 30 44 48 24 38 21 102 -6 143 -19 30 -85 62 -118 58 -12 -1 -91 -26 -175
-54 -84 -28 -160 -53 -170 -55 -9 -1 -44 -10 -77 -19 -33 -8 -78 -18 -100 -22
-22 -3 -42 -7 -45 -9 -3 -2 -46 -11 -95 -19 -205 -34 -267 -39 -530 -40 -230
-1 -303 3 -462 25 -77 11 -79 11 -198 35 -412 82 -844 269 -1193 517 -67 47
-81 62 -78 80 2 12 14 72 26 132 12 61 23 121 26 135 2 14 9 45 14 70 5 25 14
72 20 105 5 33 12 71 15 85 3 14 8 39 11 57 5 28 13 34 58 49 172 57 292 214
300 391 2 62 -7 108 -48 240 -24 81 -25 101 -5 175 34 131 -12 288 -115 392
-68 68 -138 102 -262 126 -54 10 -119 23 -144 29 -25 5 -62 12 -82 16 -23 3
-63 26 -105 58 -37 29 -179 137 -315 240 -232 175 -250 187 -290 187 -25 0
-117 -25 -218 -59 -96 -32 -176 -57 -178 -56 -3 2 -5 259 -3 330 l1 39 38 -36
c57 -55 71 -59 177 -53 53 2 99 6 103 9 4 2 31 7 61 11 30 4 61 8 70 10 36 6
98 16 128 20 120 15 173 59 173 146 0 41 -9 58 -90 177 -50 72 -90 135 -90
140 0 8 23 26 182 141 71 51 80 62 147 180 314 548 313 546 406 646 149 160
204 272 209 430 8 199 -81 381 -248 511 l-39 31 104 74 c251 181 515 321 793
421 216 77 468 139 672 163 33 4 68 9 78 11 11 2 74 6 140 9 67 4 127 8 134
11 32 10 30 -10 -5 -54 -21 -26 -41 -51 -46 -57 -4 -5 -19 -23 -33 -40 -13
-16 -46 -58 -72 -92 -26 -34 -54 -65 -62 -69 -18 -7 -395 -139 -460 -160 -25
-8 -54 -19 -65 -24 -11 -5 -47 -18 -80 -29 -192 -64 -321 -113 -338 -128 -16
-15 -67 -111 -67 -127 0 -4 -109 -272 -130 -321 -5 -11 -29 -67 -54 -125 -69
-165 -74 -149 135 -440 97 -135 183 -257 193 -272 l18 -28 -43 -48 c-24 -27
-74 -91 -111 -143 -37 -52 -81 -110 -99 -129 -187 -203 -289 -383 -315 -555
-10 -63 -10 -195 -1 -260 38 -281 240 -527 507 -618 90 -31 149 -40 255 -40
90 0 106 2 261 34 110 23 110 23 144 3 36 -21 35 -19 43 -146 6 -98 34 -160
115 -257 95 -113 101 -164 42 -365 -29 -96 -32 -118 -27 -190 8 -117 25 -175
103 -349 25 -56 66 -156 90 -222 132 -353 221 -461 387 -470 129 -6 321 99
470 259 64 69 92 120 115 215 11 44 28 91 38 104 11 13 39 50 63 81 24 31 58
93 76 136 23 59 47 98 91 147 84 95 114 137 140 200 31 77 30 174 -3 290 -33
114 -33 168 2 231 16 29 100 124 213 238 162 163 193 199 225 264 71 141 50
243 -65 316 -39 25 -44 26 -178 50 -114 20 -134 29 -182 83 -46 52 -139 238
-218 435 -68 172 -114 264 -166 329 -75 96 -155 137 -419 213 -176 50 -205 52
-295 13 -28 -12 -64 -37 -81 -57 -35 -39 -36 -39 -131 21 -54 35 -55 36 -55
84 -2 111 -69 182 -208 219 -37 10 -99 13 -235 9 -102 -3 -197 -7 -212 -10
-17 -3 -28 -1 -28 5 0 24 42 90 81 130 66 66 133 92 259 100 112 7 137 15 169
56 46 59 35 145 -26 191 -33 25 -43 27 -127 27 -115 -1 -165 -9 -247 -40 -111
-41 -203 -109 -279 -205 l-37 -47 -99 140 c-54 77 -98 146 -96 154 3 13 115
288 146 359 8 17 20 47 27 68 7 21 18 42 24 46 5 5 204 76 440 159 237 83 443
156 458 163 16 7 112 118 233 271 l206 258 51 -6 c29 -3 106 -14 172 -25 777
-127 1495 -544 1982 -1151 87 -108 243 -328 243 -342 0 -2 18 -33 39 -68 101
-167 196 -381 276 -623 l53 -160 -55 -56 c-76 -76 -110 -141 -125 -244 -2 -11
-28 47 -58 129 -58 160 -63 169 -218 349 -138 161 -175 177 -417 174 -162 -2
-172 -3 -206 -26 -86 -58 -114 -172 -65 -263 l25 -47 -42 -34 c-81 -66 -172
-122 -286 -179 -104 -51 -116 -55 -126 -40 -7 9 -51 94 -100 187 -48 94 -108
208 -132 253 -40 75 -45 91 -45 150 0 122 8 110 -197 305 -57 54 -113 104
-124 112 -28 18 -277 102 -297 100 -8 -1 -26 -3 -38 -3 -35 -3 -89 -62 -97
-105 -17 -91 22 -133 175 -187 104 -37 121 -46 175 -99 33 -32 75 -72 94 -89
31 -29 34 -36 36 -104 3 -67 8 -82 63 -183 32 -60 101 -191 152 -290 157 -303
166 -319 200 -342 48 -33 90 -29 223 21 199 76 412 200 533 311 6 6 36 32 67
59 32 27 62 65 71 86 15 37 12 97 -5 115 -16 16 -10 21 27 23 48 4 67 -10 154
-114 41 -49 78 -91 81 -94 14 -11 34 -62 119 -294 49 -135 96 -259 105 -276
11 -21 32 -39 62 -52 40 -18 51 -19 85 -8 74 22 217 180 248 273 14 46 18 44
25 -14 24 -190 19 -587 -10 -749 -1 -8 -6 -40 -10 -70 -4 -30 -16 -100 -27
-155 -125 -627 -428 -1196 -873 -1640 -71 -72 -155 -151 -185 -175 -129 -106
-159 -143 -155 -190 1 -8 3 -25 3 -37 3 -34 49 -81 93 -94 60 -18 101 0 216
96 701 587 1143 1439 1231 2375 9 98 8 525 -1 615 -8 78 -25 211 -31 241 -2
10 -11 60 -20 109 -9 50 -30 141 -47 204 -196 741 -591 1360 -1184 1850 -251
207 -598 409 -924 536 -136 53 -341 119 -401 130 -16 3 -42 10 -57 16 -15 6
-29 10 -31 9 -1 -1 -15 1 -30 4 -15 4 -37 9 -49 11 -13 3 -31 7 -40 9 -10 2
-38 7 -63 11 -25 4 -54 9 -65 11 -10 2 -37 6 -60 9 -22 3 -58 8 -81 11 -22 3
-56 8 -75 10 -40 5 -546 14 -551 9z m-1911 -1198 c160 -102 204 -312 96 -454
-20 -26 -59 -72 -87 -101 -96 -100 -110 -122 -289 -434 -98 -172 -185 -320
-193 -328 -8 -8 -87 -67 -176 -130 -237 -168 -244 -190 -127 -364 37 -55 67
-102 66 -103 -4 -3 -61 -12 -117 -18 l-55 -6 -80 73 c-89 80 -88 77 -67 191
60 326 211 720 394 1027 61 103 195 298 240 352 13 15 41 48 63 75 57 69 132
150 194 209 60 58 63 58 138 11z m1664 -1220 c-6 -69 17 -97 164 -191 184
-119 270 -158 354 -159 79 -1 129 22 185 83 l37 41 112 -31 c235 -65 249 -80
366 -372 148 -368 218 -487 357 -598 32 -26 116 -58 184 -70 36 -6 71 -14 78
-16 17 -5 -9 -35 -167 -189 -190 -185 -252 -272 -285 -395 -19 -72 -14 -187
12 -275 29 -98 34 -130 22 -161 -8 -21 -113 -151 -141 -174 -16 -14 -59 -93
-83 -156 -15 -39 -41 -85 -58 -103 -74 -79 -105 -142 -139 -281 -9 -36 -25
-59 -86 -117 -87 -83 -192 -144 -220 -127 -27 16 -77 115 -124 244 -23 63 -68
174 -99 245 -103 234 -110 277 -73 400 67 225 62 346 -19 494 -16 29 -46 71
-65 92 -61 66 -67 79 -70 154 -1 38 -5 86 -8 105 -9 53 -52 128 -97 171 -104
99 -227 120 -427 75 -242 -55 -401 -20 -538 120 -96 98 -143 214 -145 359 -2
148 49 270 177 420 47 55 131 161 187 235 56 74 110 143 121 153 35 30 116 47
257 53 74 4 136 7 137 8 1 1 24 2 50 2 l48 1 -4 -40z m-2256 -1540 c272 -209
418 -320 448 -337 18 -10 68 -26 112 -34 44 -8 89 -17 100 -20 11 -2 61 -11
110 -21 165 -30 211 -102 166 -253 -18 -58 -6 -170 29 -276 60 -185 27 -243
-170 -300 -85 -24 -121 -58 -134 -130 -3 -14 -10 -52 -16 -84 -12 -68 -18 -99
-25 -132 -3 -14 -8 -43 -11 -65 -3 -22 -8 -43 -10 -46 -2 -3 -6 -21 -9 -40 -3
-19 -10 -59 -16 -89 -7 -30 -12 -62 -14 -69 -1 -8 -6 -16 -12 -18 -14 -5 -241
235 -338 357 -229 287 -423 639 -538 981 -33 95 -99 344 -111 412 -3 15 -10
55 -16 88 -6 34 -10 62 -8 64 6 6 314 103 328 104 8 0 69 -41 135 -92z"/>
</g>
</svg>
